<?xml version="1.0"?>
<svg xmlns="http://www.w3.org/2000/svg" viewBox="0 0 64 64" width="512" height="512"><g id="setting"><path d="M29,36.04V41H42.94C40.07,39.11,34.91,36.34,29,36.04Z"/><path d="M57.48,47a12.872,12.872,0,0,0-.95-1H52.87l.67,1Z"/><path d="M27,41V36.04A28.969,28.969,0,0,0,13.06,41Z"/><path d="M4,44H9a.984.984,0,0,1,.88.53.963.963,0,0,1-.05,1.02l-2,3A1,1,0,0,1,7,49H4v.7L7.54,55h3.55a5.993,5.993,0,0,1,11.82,0H27V43H5A1,1,0,0,0,4,44Z"/><polygon points="7.13 46 4 46 4 47 6.46 47 7.13 46"/><circle cx="21" cy="11" r="2"/><path d="M15.9,13.11a.989.989,0,0,1-.07.9l-.64,1.08,1.72,1.72,1.08-.65a1.019,1.019,0,0,1,.9-.06,1.007,1.007,0,0,1,.59.68l.3,1.22h2.44l.3-1.22a1.007,1.007,0,0,1,.59-.68,1.019,1.019,0,0,1,.9.06l1.08.65,1.72-1.72-.64-1.08a.989.989,0,0,1-.07-.9,1.007,1.007,0,0,1,.68-.59l1.22-.3V9.78l-1.22-.3a1.007,1.007,0,0,1-.68-.59.989.989,0,0,1,.07-.9l.64-1.08L25.09,5.19l-1.08.64a.989.989,0,0,1-.9.07,1.007,1.007,0,0,1-.59-.68L22.22,4H19.78l-.3,1.22a1.007,1.007,0,0,1-.59.68.989.989,0,0,1-.9-.07l-1.08-.64L15.19,6.91l.64,1.08a.989.989,0,0,1,.07.9,1.007,1.007,0,0,1-.68.59L14,9.78v2.44l1.22.3A1.007,1.007,0,0,1,15.9,13.11ZM21,7a4,4,0,1,1-4,4A4,4,0,0,1,21,7Z"/><circle cx="43" cy="20" r="2"/><path d="M31,46.5a.5.5,0,0,0-.5-.5H29v1h1.5A.5.5,0,0,0,31,46.5Z"/><path d="M53,49a1,1,0,0,1-.83-.45l-2-3a.963.963,0,0,1-.05-1.02A.984.984,0,0,1,51,44h2.55A10.816,10.816,0,0,0,49,43H29v1h1.5a2.5,2.5,0,0,1,0,5H29v6H42.09a5.993,5.993,0,0,1,11.82,0H60V54a10.922,10.922,0,0,0-1.21-5Z"/><path d="M41.48,14.22a1.007,1.007,0,0,1-.59.68.989.989,0,0,1-.9-.07l-1.08-.64-1.72,1.72.64,1.08a.989.989,0,0,1,.07.9,1.007,1.007,0,0,1-.68.59l-1.22.3v2.44l1.22.3a1.007,1.007,0,0,1,.68.59.989.989,0,0,1-.07.9l-.64,1.08,1.72,1.72,1.08-.65a1.019,1.019,0,0,1,.9-.06,1.007,1.007,0,0,1,.59.68l.3,1.22h2.44l.3-1.22a1.007,1.007,0,0,1,.59-.68,1.019,1.019,0,0,1,.9.06l1.08.65,1.72-1.72-.64-1.08a.989.989,0,0,1-.07-.9,1.007,1.007,0,0,1,.68-.59l1.22-.3V18.78l-1.22-.3a1.007,1.007,0,0,1-.68-.59.989.989,0,0,1,.07-.9l.64-1.08-1.72-1.72-1.08.64a.989.989,0,0,1-.9.07,1.007,1.007,0,0,1-.59-.68L44.22,13H41.78ZM47,20a4,4,0,1,1-4-4A4,4,0,0,1,47,20Z"/><path d="M61,19H54v2h6V41h2V20A1,1,0,0,0,61,19Z"/><path d="M4,12h6V10H3a1,1,0,0,0-1,1V39H4Z"/><path d="M42,9h2V3a1,1,0,0,0-1-1H29V4H42Z"/><path d="M35,27H22V22H20v6a1,1,0,0,0,1,1H35Z"/><circle cx="48" cy="56" r="4"/><circle cx="17" cy="56" r="4"/></g></svg>
