<?xml version="1.0"?>
<svg xmlns="http://www.w3.org/2000/svg" viewBox="0 0 512 512" width="512" height="512"><g id="solid"><path d="M136,264a15.982,15.982,0,0,0-12.2,26.329,7.885,7.885,0,0,1,.544.6,15.925,15.925,0,0,0,23.31,0,7.885,7.885,0,0,1,.544-.6A15.982,15.982,0,0,0,136,264Z"/><path d="M88,240h16v16H80.824A39.158,39.158,0,0,0,80,264v24h25.013a32,32,0,1,1,61.974,0H184V224H120A39.94,39.94,0,0,0,88,240Z"/><rect x="64" y="88" width="64" height="64" rx="8" ry="8"/><path d="M272,392H240a16,16,0,0,0,32,0Z"/><path d="M32,360a16,16,0,0,0,16,16H464a16,16,0,0,0,16-16V344H32Z"/><path d="M352,456H160a8.009,8.009,0,0,0-8,8v8H360v-8A8.009,8.009,0,0,0,352,456Z"/><path d="M224,392H207.765a144.615,144.615,0,0,1-11.143,48H315.378a144.615,144.615,0,0,1-11.143-48H288a32,32,0,0,1-64,0Z"/><rect x="200" y="72" width="64" height="48" rx="8" ry="8"/><path d="M366.639,207.663A87.728,87.728,0,0,0,312,176.959V208h54.92Z"/><rect x="384" y="72" width="64" height="64" rx="8" ry="8"/><path d="M312,264a7.994,7.994,0,0,1-.845,3.578L300.944,288h28.069a32,32,0,1,1,61.974,0H408V256H392V240h14.624A24.039,24.039,0,0,0,384,224H312Z"/><path d="M464,40H48A16,16,0,0,0,32,56V328H480V56A16,16,0,0,0,464,40Zm0,192H432V216h32Zm0-32H432V184h32Zm0-72a24.027,24.027,0,0,1-24,24H424v16a8,8,0,0,1-4.422,7.155l-41.812,20.906c.389.452.782.9,1.165,1.36l8.977,10.772A40.055,40.055,0,0,1,424,248v48a8,8,0,0,1-8,8H381.132a31.91,31.91,0,0,1-42.264,0H157.132a31.91,31.91,0,0,1-42.264,0H72a8,8,0,0,1-8-8V264a54.5,54.5,0,0,1,3.263-18.683,55.743,55.743,0,0,1,39.018-35.606L91.2,198.4A8,8,0,0,1,88,192V168H72a24.027,24.027,0,0,1-24-24V96A24.027,24.027,0,0,1,72,72h48a24.027,24.027,0,0,1,24,24v48a24.027,24.027,0,0,1-24,24H104v20l26.667,20h41.052l1.126-1.688a103.757,103.757,0,0,1,62-43.383l-6.882-4.022A8,8,0,0,1,224,152V136H208a24.027,24.027,0,0,1-24-24V80a24.027,24.027,0,0,1,24-24h48a24.027,24.027,0,0,1,24,24v32a24.027,24.027,0,0,1-24,24H240v11.409L261.544,160h37.492a103.682,103.682,0,0,1,66.689,24.193L408,163.056V152H392a24.027,24.027,0,0,1-24-24V80a24.027,24.027,0,0,1,24-24h48a24.027,24.027,0,0,1,24,24Z"/><path d="M200,288h83.056L296,262.111V224H200Zm48-48h32v16H248Z"/><path d="M360,264a15.982,15.982,0,0,0-12.2,26.329,7.885,7.885,0,0,1,.544.6,15.925,15.925,0,0,0,23.31,0,7.885,7.885,0,0,1,.544-.6A15.982,15.982,0,0,0,360,264Z"/><path d="M259.37,176h-.011A87.8,87.8,0,0,0,191.5,208H296V176H259.37Z"/></g></svg>
