<svg id="Layer_1" enable-background="new 0 0 512 512" height="512" viewBox="0 0 512 512" width="512" xmlns="http://www.w3.org/2000/svg"><g><path d="m414.571 415.107-116.514-22.892c-1.361-3.35-2.298-6.851-2.791-10.449-.968-7.047-.179-14.299 2.282-20.974l1.282-3.479c1.311-.929 2.593-1.902 3.844-2.919 44.32-35.851 66.793-68.071 66.793-95.768 0-2.892-.12-5.802-.355-8.648-.004-.039-.007-.078-.011-.116-.155-1.565-.288-3.732-.4-6.439 15.012-4.018 26.375-19.778 26.564-38.552.033-3.356-.276-6.64-.924-9.827 9.791-4.232 16.66-13.984 16.66-25.309v-13.301c0-4.142-3.357-7.5-7.5-7.5h-22.435v-31.564c0-55.548-45.203-100.74-100.765-100.74h-.265v-9.13c0-4.142-3.357-7.5-7.5-7.5h-32.921c-4.142 0-7.5 3.358-7.5 7.5v9.13h-1.823c-55.562 0-100.764 45.192-100.764 100.74v31.564h-21.986c-4.142 0-7.5 3.358-7.5 7.5v13.301c0 11.616 7.225 21.576 17.418 25.624-.609 3.11-.906 6.31-.874 9.513.187 18.67 11.426 34.36 26.316 38.484-.127 2.739-.273 4.981-.437 6.648-.239 2.677-.36 5.578-.36 8.624 0 27.688 22.462 59.899 66.747 95.724 1.035.842 2.091 1.654 3.167 2.436l1.477 4.005c2.462 6.678 3.251 13.935 2.28 20.986-.495 3.597-1.431 7.096-2.792 10.443l-115.533 22.881c-32.284 6.248-55.716 34.643-55.716 67.519v21.878c0 4.142 3.358 7.5 7.5 7.5h238.3c4.143 0 7.5-3.358 7.5-7.5s-3.357-7.5-7.5-7.5h-123.225v-21.866h182.956v21.866h-24.537c-4.143 0-7.5 3.358-7.5 7.5s3.357 7.5 7.5 7.5h140.037c4.143 0 7.5-3.358 7.5-7.5v-21.878c0-32.876-23.432-61.272-55.695-67.515zm-26.168 45.027h-26.138v-40.017l26.138 5.135zm-8.137-255.412c-.104 10.304-5.032 19.153-11.925 22.85-.091-8.447-.092-18.702.004-30.279h11.127c.548 2.4.819 4.909.794 7.429zm-99.963-173.092c44.764 0 81.627 34.462 85.439 78.24h-32.043c-4.143 0-7.5 3.358-7.5 7.5s3.357 7.5 7.5 7.5h32.368v24.064h-86.029v-117.304zm-33.186 93.24h17.921v24.064h-17.921zm17.921-109.87v94.87h-17.921v-94.87zm-120.508 109.87h32.368c4.142 0 7.5-3.358 7.5-7.5s-3.358-7.5-7.5-7.5h-32.043c3.812-43.778 40.676-78.24 85.439-78.24h1.823v117.304h-87.587zm-12.943 79.852c-.025-2.522.245-5.029.793-7.429h11.094c.06 11.245.015 21.558-.124 30.191-6.808-3.748-11.66-12.54-11.763-22.762zm25.52 53.906c0-2.603.101-5.056.294-7.224.951-9.666 1.181-33.03 1.072-54.112h16.989c4.142 0 7.5-3.358 7.5-7.5s-3.358-7.5-7.5-7.5h-47.857c-6.926 0-12.562-5.633-12.562-12.557v-5.801h280.958v5.801c0 6.924-5.635 12.557-12.562 12.557h-172.907c-4.142 0-7.5 3.358-7.5 7.5s3.358 7.5 7.5 7.5h142.814c-.135 16.747-.174 43.783.822 53.982.199 2.418.3 4.892.3 7.354 0 22.622-21.172 51.706-61.239 84.116-10.51 8.54-23.736 13.237-37.292 13.237-.089 0-.177 0-.267 0-13.572 0-26.832-4.708-37.365-13.277-40.036-32.389-61.198-61.461-61.198-84.076zm98.529 112.352h.333c8.419 0 16.746-1.452 24.608-4.223-.884 5.632-.95 11.39-.173 17.05.794 5.778 2.435 11.371 4.885 16.652-.848 15.679-13.875 28.174-29.766 28.174-7.812 0-15.195-2.999-20.791-8.443-5.425-5.279-8.577-12.234-8.977-19.729 2.447-5.275 4.088-10.862 4.883-16.637.789-5.735.713-11.571-.203-17.274 8.039 2.907 16.574 4.431 25.201 4.43zm-132.464 54.32 26.138-5.176v40.01h-26.138zm-66.438 71.7v-14.378c0-25.705 18.322-47.907 43.598-52.798l7.839-1.552v68.728zm92.576-.129h-26.138v-21.736h26.138zm15-36.737v-42.981l47.29-9.365c1.763 8.755 6.112 16.769 12.672 23.153 8.412 8.185 19.511 12.693 31.251 12.693 21.647 0 39.758-15.426 43.913-35.86l47.829 9.397v42.964h-182.955zm224.093 15v21.736h-26.138v-21.736zm66.863 21.866h-51.862v-68.801l8.297 1.63c25.243 4.885 43.565 27.087 43.565 52.792z"/><path d="m255.521 311.369c15.935 0 29.938-10.734 34.055-26.104 1.071-4.001-1.304-8.113-5.305-9.185-4.003-1.074-8.114 1.303-9.186 5.305-2.362 8.822-10.407 14.984-19.564 14.984-9.151 0-17.193-6.162-19.556-14.984-1.072-4.002-5.189-6.378-9.185-5.305-4.001 1.071-6.376 5.184-5.305 9.185 4.116 15.37 18.116 26.104 34.046 26.104z"/></g></svg>