<?xml version="1.0" standalone="no"?>
<!DOCTYPE svg PUBLIC "-//W3C//DTD SVG 20010904//EN"
 "http://www.w3.org/TR/2001/REC-SVG-20010904/DTD/svg10.dtd">
<svg version="1.0" xmlns="http://www.w3.org/2000/svg"
 width="280.000000pt" height="280.000000pt" viewBox="0 0 280.000000 280.000000"
 preserveAspectRatio="xMidYMid meet">
<metadata>
Created by potrace 1.11, written by Peter Selinger 2001-2013
</metadata>
<g transform="translate(0.000000,280.000000) scale(0.100000,-0.100000)"
fill="#000000" stroke="none">
<path d="M2466 2754 c-3 -9 -6 -62 -6 -119 0 -100 -1 -104 -26 -124 -32 -25
-61 -27 -92 -5 -18 13 -22 25 -22 72 0 31 -3 80 -6 109 l-7 52 -39 -20 c-33
-17 -46 -33 -76 -97 -26 -55 -37 -94 -40 -137 -4 -55 0 -69 32 -133 49 -96 53
-139 27 -237 l-22 -80 -282 -1 c-369 -1 -903 -36 -994 -65 -55 -18 -85 -64
-278 -431 l-88 -166 -111 5 c-136 7 -170 -2 -268 -66 -86 -56 -97 -74 -70
-111 23 -30 134 -90 168 -90 33 0 30 18 -3 26 -36 9 -105 49 -128 74 -17 18
-15 20 40 55 101 65 115 68 261 60 l132 -6 74 143 c100 192 225 388 271 426
22 18 183 28 672 43 237 6 435 8 486 3 l87 -9 -44 -150 c-25 -82 -74 -249
-110 -370 -35 -121 -81 -275 -101 -342 l-36 -123 -36 0 c-40 0 -472 37 -866
74 -426 39 -425 39 -425 23 0 -11 41 -22 162 -45 396 -76 757 -126 1049 -147
l87 -7 -35 -115 c-19 -64 -41 -130 -50 -147 -26 -51 -81 -113 -142 -160 -81
-62 -96 -88 -95 -161 2 -99 71 -225 124 -225 19 0 20 6 20 91 0 50 4 98 10
108 14 28 64 45 89 32 28 -15 34 -48 29 -137 -5 -72 -4 -75 19 -80 41 -11 67
18 101 111 38 104 39 141 7 220 -32 75 -41 159 -26 222 12 47 173 577 385
1268 l105 340 115 110 c76 73 117 120 122 140 15 62 -30 192 -97 276 -34 43
-44 47 -53 23z"/>
<path d="M400 674 c-15 -37 -12 -131 4 -162 20 -38 73 -86 123 -111 87 -43
412 -121 509 -121 l44 0 0 40 c0 56 -27 80 -158 142 -246 116 -376 176 -460
214 l-53 24 -9 -26z"/>
</g>
</svg>
